<?xml version="1.0" encoding="utf-8"?>
<!-- Generator: Adobe Illustrator 16.0.4, SVG Export Plug-In . SVG Version: 6.00 Build 0)  -->
<!DOCTYPE svg PUBLIC "-//W3C//DTD SVG 1.1//EN" "http://www.w3.org/Graphics/SVG/1.1/DTD/svg11.dtd">
<svg version="1.1" id="Calque_1" xmlns="http://www.w3.org/2000/svg" xmlns:xlink="http://www.w3.org/1999/xlink" x="0px" y="0px"
	 width="392px" height="331px" viewBox="100.14 253.445 392 331" enable-background="new 100.14 253.445 392 331"
	 xml:space="preserve">
<g>
	<g>
		<path fill="#55362C" d="M153.518,507.783c-0.523-0.73-0.93-1.34-1.203-1.832c-0.281-0.492-0.426-0.92-0.426-1.283
			c0-0.365,0.109-0.707,0.325-1.033c0.21-0.33,0.63-0.494,1.255-0.494c0.365,0,0.645,0.039,0.843,0.119
			c0.196,0.084,0.36,0.158,0.489,0.227c0.498,0.723,1.238,1.793,2.225,3.207c0.987,1.416,2.072,2.965,3.259,4.643
			c1.186,1.678,2.408,3.371,3.679,5.086c1.267,1.713,2.443,3.229,3.532,4.539c1.019-1.311,2.055-2.705,3.111-4.174
			c1.05-1.463,2.072-2.922,3.061-4.389c0.987-1.469,1.917-2.865,2.789-4.197c0.873-1.336,1.654-2.508,2.346-3.531
			c0.363-0.527,0.705-0.916,1.036-1.158c0.331-0.25,0.757-0.371,1.287-0.371c0.556,0,0.993,0.1,1.304,0.297
			c0.313,0.199,0.503,0.328,0.57,0.393c-0.562,0.955-1.386,2.273-2.471,3.955c-1.085,1.674-2.279,3.469-3.577,5.377
			c-1.302,1.908-2.654,3.828-4.048,5.75c-1.401,1.926-2.662,3.615-3.781,5.066v13.033h-3.451v-13.033
			c-0.794-0.926-1.75-2.125-2.87-3.607c-1.12-1.484-2.251-3.004-3.405-4.564c-1.15-1.564-2.263-3.072-3.333-4.52
			C154.994,509.839,154.145,508.666,153.518,507.783z"/>
		<path fill="#55362C" d="M191.346,514.638c-1.845,0-3.345,0.234-4.496,0.693c-1.154,0.465-1.943,0.891-2.369,1.281
			c-0.229-0.16-0.435-0.393-0.619-0.686c-0.181-0.297-0.268-0.627-0.268-0.99c0-0.359,0.086-0.674,0.268-0.936
			c0.185-0.266,0.406-0.496,0.671-0.693c0.325-0.266,1.051-0.562,2.171-0.891c1.116-0.324,2.634-0.492,4.542-0.492
			c3.917,0,6.96,0.805,9.133,2.418c2.173,1.619,3.258,4.215,3.258,7.805v14.764c-0.953,0.164-2.329,0.334-4.122,0.516
			s-3.825,0.271-6.096,0.271c-2.634,0-4.747-0.23-6.348-0.689c-1.592-0.457-2.838-1.061-3.725-1.805
			c-0.89-0.736-1.485-1.572-1.776-2.492c-0.299-0.922-0.445-1.84-0.445-2.764c0-1.188,0.181-2.262,0.541-3.234
			c0.362-0.971,0.979-1.805,1.854-2.49c0.869-0.693,2.049-1.24,3.526-1.633c1.484-0.391,3.345-0.59,5.584-0.59
			c0.723,0,1.477,0.025,2.271,0.074c0.789,0.047,1.537,0.098,2.245,0.146c0.708,0.053,1.351,0.109,1.928,0.17
			c0.573,0.066,1.028,0.115,1.354,0.15v-0.295c0-1.516-0.256-2.766-0.763-3.756c-0.513-0.986-1.187-1.771-2.023-2.346
			c-0.838-0.572-1.802-0.971-2.887-1.188C193.666,514.746,192.529,514.638,191.346,514.638z M200.427,525.306
			c-0.293-0.064-1.077-0.197-2.34-0.396c-1.27-0.193-3.137-0.293-5.607-0.293c-1.218,0-2.319,0.082-3.31,0.246
			c-0.987,0.162-1.834,0.453-2.539,0.863c-0.711,0.414-1.252,0.965-1.632,1.654c-0.377,0.691-0.567,1.547-0.567,2.568
			c0,1.777,0.7,3.086,2.099,3.924c1.396,0.84,3.729,1.264,6.986,1.264c2.143,0,3.733-0.092,4.79-0.273
			c1.054-0.18,1.762-0.318,2.122-0.416v-9.141H200.427z"/>
		<path fill="#55362C" d="M229.462,537.009V523.38c0-2.729-0.68-4.854-2.049-6.369c-1.368-1.516-3.429-2.273-6.194-2.273
			s-4.824,0.76-6.174,2.273c-1.351,1.518-2.023,3.641-2.023,6.369v13.629h-3.261v-14.617c0-1.547,0.265-2.961,0.794-4.24
			c0.526-1.291,1.281-2.391,2.268-3.314c0.987-0.914,2.19-1.637,3.606-2.15c1.414-0.506,3.014-0.76,4.79-0.76
			s3.382,0.254,4.815,0.76c1.428,0.514,2.64,1.236,3.627,2.15c0.986,0.924,1.743,2.023,2.273,3.314
			c0.524,1.279,0.786,2.693,0.786,4.24v14.617H229.462z"/>
		<path fill="#55362C" d="M258.545,537.009V523.38c0-2.729-0.686-4.854-2.049-6.369c-1.367-1.516-3.432-2.273-6.194-2.273
			c-2.77,0-4.827,0.76-6.174,2.273c-1.351,1.518-2.023,3.641-2.023,6.369v13.629h-3.261v-14.617c0-1.547,0.262-2.961,0.792-4.24
			c0.524-1.291,1.284-2.391,2.271-3.314c0.987-0.914,2.19-1.637,3.604-2.15c1.416-0.506,3.011-0.76,4.792-0.76
			c1.776,0,3.379,0.254,4.81,0.76c1.435,0.514,2.644,1.236,3.637,2.15c0.983,0.924,1.74,2.023,2.265,3.314
			c0.53,1.279,0.794,2.693,0.794,4.24v14.617H258.545z"/>
		<path fill="#55362C" d="M280.813,502.296c0-0.492,0.142-0.893,0.42-1.207c0.279-0.314,0.734-0.471,1.355-0.471
			c0.299,0,0.587,0.043,0.863,0.123c0.281,0.084,0.486,0.158,0.621,0.221v36.047h-3.261L280.813,502.296L280.813,502.296z"/>
		<path fill="#55362C" d="M292.96,526.937c0.361,2.533,1.416,4.49,3.16,5.875c1.747,1.385,4.05,2.072,6.913,2.072
			c1.68,0,3.106-0.234,4.27-0.713c1.169-0.48,2.067-0.898,2.694-1.262l1.428,2.369c-0.259,0.164-0.656,0.385-1.18,0.668
			c-0.53,0.281-1.169,0.555-1.93,0.812c-0.757,0.268-1.611,0.484-2.566,0.666c-0.953,0.182-2.007,0.271-3.161,0.271
			c-1.812,0-3.516-0.271-5.109-0.812c-1.598-0.541-2.997-1.342-4.197-2.393c-1.202-1.057-2.146-2.354-2.838-3.902
			c-0.693-1.547-1.04-3.346-1.04-5.387c0-1.971,0.328-3.773,0.99-5.402c0.656-1.633,1.578-3.033,2.763-4.197
			c1.187-1.168,2.595-2.07,4.221-2.717c1.629-0.639,3.417-0.961,5.359-0.961c1.645,0,3.085,0.188,4.323,0.564
			c1.231,0.379,2.257,0.918,3.082,1.605c0.823,0.689,1.439,1.508,1.854,2.445c0.407,0.938,0.612,1.949,0.612,3.035
			c0,1.088-0.22,2.084-0.665,2.986c-0.445,0.906-1.203,1.697-2.271,2.369c-1.07,0.68-2.501,1.205-4.298,1.582
			c-1.79,0.377-4.057,0.564-6.787,0.564c-1.053,0-2.016-0.008-2.887-0.025C294.824,527.042,293.913,527.003,292.96,526.937z
			 M292.862,524.367c0.891,0.068,1.753,0.109,2.595,0.127c0.837,0.016,1.718,0.023,2.639,0.023c2.239,0,4.082-0.139,5.532-0.418
			c1.447-0.279,2.594-0.652,3.435-1.115c0.837-0.459,1.419-1,1.75-1.629c0.331-0.623,0.495-1.279,0.495-1.975
			c0-0.92-0.19-1.691-0.57-2.322c-0.38-0.625-0.89-1.123-1.527-1.502c-0.646-0.381-1.367-0.652-2.173-0.82
			c-0.811-0.158-1.642-0.242-2.496-0.242c-1.55,0-2.913,0.27-4.1,0.814c-1.183,0.545-2.179,1.275-2.984,2.197
			c-0.807,0.92-1.435,1.977-1.877,3.16C293.133,521.851,292.894,523.083,292.862,524.367z"/>
		<path fill="#55362C" d="M348.904,522.591c0.855,1.154,1.693,2.363,2.518,3.631s1.614,2.531,2.368,3.803
			c0.758,1.264,1.469,2.504,2.125,3.701c0.658,1.203,1.255,2.297,1.777,3.283h-4.149c-0.357-0.756-0.904-1.781-1.626-3.059
			c-0.724-1.287-1.491-2.615-2.297-3.977c-0.808-1.363-1.604-2.658-2.396-3.875c-0.788-1.221-1.431-2.141-1.926-2.77
			c-0.656,0.1-1.295,0.164-1.899,0.199c-0.606,0.033-1.193,0.049-1.753,0.049c-1.877,0-3.475-0.039-4.793-0.123
			c-1.312-0.084-2.3-0.174-2.962-0.273v13.828h-3.354v-31.898c0-1.15,0.656-1.809,1.975-1.973c0.357-0.068,1.247-0.166,2.663-0.299
			c1.419-0.131,3.327-0.195,5.729-0.195c2.202,0,4.252,0.178,6.148,0.543c1.892,0.363,3.526,0.953,4.911,1.775
			c1.381,0.826,2.458,1.893,3.234,3.211c0.774,1.318,1.16,2.93,1.16,4.838c0,1.381-0.195,2.604-0.594,3.652
			c-0.392,1.057-0.93,1.969-1.603,2.74c-0.678,0.777-1.47,1.416-2.372,1.926C350.888,521.843,349.924,522.267,348.904,522.591z
			 M352.805,513.013c0-1.117-0.216-2.135-0.639-3.037c-0.433-0.904-1.114-1.688-2.051-2.344c-0.938-0.658-2.176-1.172-3.707-1.531
			c-1.527-0.359-3.398-0.545-5.602-0.545c-2.105,0-3.713,0.055-4.815,0.154c-1.104,0.092-1.802,0.174-2.102,0.24v14.223
			c0.596,0.096,1.469,0.205,2.62,0.32c1.154,0.115,2.563,0.172,4.248,0.172c4.273,0,7.356-0.656,9.23-1.979
			C351.866,517.373,352.805,515.482,352.805,513.013z"/>
		<path fill="#55362C" d="M386.477,524.812c0,1.777-0.331,3.449-0.987,5.014c-0.655,1.561-1.567,2.93-2.736,4.098
			c-1.168,1.17-2.562,2.09-4.174,2.768c-1.614,0.67-3.373,1.008-5.284,1.008c-1.905,0-3.673-0.338-5.282-1.008
			c-1.612-0.678-3.002-1.598-4.174-2.768c-1.168-1.168-2.081-2.535-2.737-4.098c-0.662-1.564-0.987-3.236-0.987-5.014
			c0-1.812,0.325-3.496,0.987-5.059c0.656-1.561,1.569-2.934,2.737-4.1c1.172-1.168,2.562-2.082,4.174-2.744
			c1.609-0.656,3.377-0.984,5.282-0.984c1.911,0,3.67,0.328,5.284,0.984c1.611,0.662,3.006,1.576,4.174,2.744
			c1.169,1.166,2.081,2.539,2.736,4.1C386.146,521.316,386.477,523,386.477,524.812z M382.974,524.812
			c0-1.416-0.229-2.736-0.693-3.977c-0.458-1.232-1.119-2.309-1.975-3.23c-0.855-0.924-1.874-1.637-3.06-2.148
			c-1.188-0.514-2.502-0.768-3.952-0.768c-1.448,0-2.762,0.254-3.946,0.768c-1.189,0.512-2.208,1.227-3.062,2.148
			c-0.858,0.922-1.519,1.998-1.976,3.23c-0.464,1.24-0.694,2.561-0.694,3.977c0,1.387,0.239,2.689,0.721,3.928
			c0.475,1.234,1.134,2.307,1.972,3.209c0.841,0.904,1.851,1.619,3.04,2.146c1.186,0.529,2.498,0.789,3.946,0.789
			c1.45,0,2.766-0.26,3.952-0.789c1.186-0.527,2.203-1.242,3.06-2.146c0.854-0.902,1.517-1.975,1.975-3.209
			C382.743,527.501,382.974,526.199,382.974,524.812z"/>
		<path fill="#55362C" d="M411.314,514.296c0-0.492,0.143-0.896,0.421-1.209c0.276-0.316,0.733-0.473,1.355-0.473
			c0.299,0,0.587,0.043,0.866,0.123c0.278,0.084,0.485,0.16,0.615,0.223v14.268c0,1.553-0.265,2.973-0.789,4.25
			c-0.528,1.285-1.283,2.389-2.271,3.311s-2.196,1.637-3.627,2.146c-1.438,0.508-3.043,0.764-4.818,0.764
			c-1.776,0-3.374-0.256-4.79-0.764c-1.416-0.51-2.615-1.227-3.604-2.146c-0.99-0.922-1.744-2.023-2.27-3.311
			c-0.528-1.277-0.794-2.697-0.794-4.25v-12.932c0-0.492,0.142-0.896,0.423-1.209c0.276-0.316,0.731-0.473,1.358-0.473
			c0.291,0,0.581,0.043,0.863,0.123c0.275,0.084,0.483,0.16,0.616,0.223v13.287c0,2.73,0.674,4.855,2.022,6.369
			c1.351,1.512,3.408,2.27,6.172,2.27c2.769,0,4.83-0.758,6.197-2.27c1.366-1.514,2.049-3.639,2.049-6.369v-11.951H411.314z"/>
		<path fill="#55362C" d="M438.524,537.009c-1.154-1.416-2.433-2.922-3.828-4.514c-1.398-1.602-3.101-3.5-5.108-5.705
			c-1.782,2.072-3.418,4.031-4.916,5.873c-1.494,1.848-2.622,3.293-3.381,4.346h-3.654c0.164-0.258,0.562-0.789,1.186-1.582
			c0.625-0.787,1.408-1.75,2.348-2.885c0.936-1.141,1.966-2.387,3.084-3.754c1.121-1.367,2.258-2.74,3.408-4.121
			c-0.924-1.021-1.836-2.002-2.742-2.939c-0.903-0.939-1.732-1.803-2.489-2.594c-0.761-0.789-1.435-1.486-2.026-2.102
			c-0.597-0.607-1.034-1.105-1.333-1.502c-0.229-0.266-0.423-0.529-0.569-0.795c-0.145-0.26-0.22-0.521-0.22-0.783
			c0-0.295,0.099-0.592,0.294-0.893c0.198-0.299,0.594-0.445,1.187-0.445c0.297,0,0.553,0.031,0.763,0.098
			c0.213,0.066,0.357,0.137,0.421,0.199c0.232,0.266,0.615,0.688,1.16,1.26c0.544,0.574,1.203,1.285,1.977,2.125
			c0.771,0.838,1.628,1.771,2.571,2.787c0.936,1.023,1.914,2.092,2.937,3.209c0.854-1.02,1.678-1.998,2.467-2.936
			c0.792-0.939,1.5-1.77,2.124-2.496c0.628-0.719,1.143-1.322,1.558-1.801c0.405-0.475,0.662-0.779,0.763-0.914
			c0.461-0.488,0.898-0.871,1.311-1.135c0.409-0.266,0.896-0.396,1.457-0.396c0.46,0,0.854,0.09,1.183,0.273
			c0.331,0.182,0.562,0.336,0.69,0.473c-0.192,0.195-0.59,0.641-1.18,1.33c-0.597,0.691-1.327,1.539-2.199,2.543
			c-0.872,1.008-1.848,2.131-2.913,3.383c-1.07,1.252-2.164,2.531-3.284,3.852c1.154,1.283,2.297,2.564,3.429,3.855
			c1.138,1.281,2.19,2.48,3.16,3.602c0.97,1.119,1.83,2.123,2.57,3.014c0.74,0.887,1.292,1.58,1.651,2.072h-3.853V537.009z"/>
		<path fill="#55362C" d="M177.711,579.312v-12.445h-16.752v12.445h-2.628v-24.75c0-0.402,0.109-0.734,0.329-0.984
			c0.213-0.254,0.572-0.383,1.082-0.383c0.256,0,0.488,0.027,0.704,0.096c0.217,0.064,0.384,0.133,0.514,0.207v11.082h16.752
			v-10.018c0-0.402,0.108-0.734,0.325-0.984c0.216-0.254,0.563-0.383,1.048-0.383c0.278,0,0.528,0.037,0.742,0.111
			c0.216,0.078,0.386,0.156,0.513,0.23v25.775H177.711L177.711,579.312z"/>
		<path fill="#55362C" d="M212.131,569.908c0,1.373-0.256,2.658-0.763,3.863c-0.511,1.207-1.209,2.262-2.113,3.162
			c-0.898,0.9-1.976,1.611-3.218,2.133c-1.24,0.521-2.6,0.779-4.073,0.779c-1.471,0-2.83-0.26-4.073-0.779
			c-1.244-0.521-2.317-1.232-3.218-2.133c-0.901-0.9-1.609-1.955-2.113-3.162c-0.507-1.205-0.763-2.49-0.763-3.863
			c0-1.395,0.256-2.695,0.763-3.9c0.504-1.207,1.212-2.26,2.113-3.16c0.9-0.9,1.975-1.605,3.218-2.109
			c1.243-0.512,2.603-0.762,4.073-0.762c1.474,0,2.833,0.25,4.073,0.762c1.243,0.504,2.319,1.209,3.218,2.109
			c0.904,0.9,1.603,1.953,2.113,3.16C211.875,567.212,212.131,568.513,212.131,569.908z M209.425,569.908
			c0-1.092-0.179-2.111-0.533-3.062c-0.354-0.953-0.863-1.785-1.52-2.496c-0.662-0.711-1.451-1.258-2.363-1.654
			c-0.913-0.395-1.929-0.588-3.045-0.588c-1.114,0-2.13,0.193-3.042,0.588c-0.916,0.396-1.704,0.943-2.363,1.654
			c-0.662,0.711-1.166,1.543-1.521,2.496c-0.354,0.951-0.53,1.973-0.53,3.062c0,1.062,0.181,2.074,0.547,3.029
			c0.369,0.949,0.878,1.775,1.525,2.471c0.647,0.705,1.428,1.256,2.343,1.664c0.913,0.402,1.929,0.602,3.042,0.602
			c1.117,0,2.133-0.199,3.045-0.602c0.913-0.408,1.701-0.959,2.363-1.664c0.655-0.693,1.166-1.521,1.52-2.471
			C209.247,571.982,209.425,570.972,209.425,569.908z"/>
		<path fill="#55362C" d="M235.582,561.873c0,0.26-0.069,0.486-0.208,0.688c-0.142,0.201-0.273,0.369-0.4,0.496
			c-0.435-0.205-0.979-0.396-1.638-0.57c-0.659-0.182-1.438-0.268-2.32-0.268c-1.042,0-1.914,0.129-2.611,0.379
			c-0.698,0.254-1.264,0.629-1.694,1.127c-0.43,0.494-0.734,1.107-0.912,1.846c-0.176,0.732-0.269,1.57-0.269,2.51v11.232h-2.513
			v-12.414c0-2.203,0.662-3.91,1.98-5.119c1.32-1.201,3.25-1.803,5.785-1.803c1.373,0,2.514,0.146,3.432,0.451
			C235.126,560.736,235.582,561.214,235.582,561.873z"/>
		<path fill="#55362C" d="M247.918,562.792v11.037c0,1.422,0.368,2.422,1.104,3.008c0.734,0.588,1.698,0.875,2.894,0.875
			c0.76,0,1.471-0.123,2.133-0.377c0.659-0.256,1.168-0.498,1.522-0.727l1.103,1.641c-0.152,0.125-0.388,0.275-0.702,0.457
			c-0.317,0.172-0.7,0.354-1.143,0.525c-0.443,0.186-0.965,0.328-1.563,0.441c-0.596,0.115-1.247,0.172-1.958,0.172
			c-1.016,0-1.894-0.141-2.628-0.42s-1.347-0.662-1.831-1.158c-0.478-0.498-0.844-1.088-1.083-1.771
			c-0.245-0.686-0.363-1.434-0.363-2.242v-17.559c0-0.381,0.106-0.688,0.328-0.93c0.213-0.246,0.56-0.359,1.042-0.359
			c0.23,0,0.452,0.027,0.665,0.092c0.216,0.064,0.377,0.123,0.479,0.172v4.834h6.697c0.539,0,0.904,0.123,1.108,0.363
			s0.299,0.537,0.299,0.895c0,0.205-0.022,0.395-0.072,0.57c-0.049,0.182-0.104,0.328-0.152,0.461H247.918L247.918,562.792z"/>
		<path fill="#55362C" d="M269.126,553.845c0,0.504-0.185,0.941-0.554,1.312c-0.367,0.361-0.809,0.551-1.314,0.551
			c-0.509,0-0.937-0.189-1.292-0.551c-0.354-0.371-0.532-0.809-0.532-1.312c0-0.512,0.178-0.939,0.532-1.299
			c0.356-0.355,0.783-0.531,1.292-0.531c0.507,0,0.947,0.176,1.314,0.531C268.942,552.904,269.126,553.333,269.126,553.845z
			 M266.041,561.802c0-0.381,0.108-0.693,0.324-0.936c0.217-0.24,0.562-0.363,1.049-0.363c0.224,0,0.445,0.035,0.665,0.098
			c0.213,0.061,0.375,0.117,0.472,0.17v18.543h-2.51V561.802z"/>
		<path fill="#55362C" d="M289.725,562.138c-1.064,0-2.052,0.158-2.953,0.461c-0.9,0.307-1.681,0.771-2.337,1.406
			c-0.662,0.637-1.18,1.443-1.546,2.422c-0.369,0.977-0.55,2.125-0.55,3.445c0,1.367,0.202,2.551,0.606,3.537
			c0.403,0.99,0.958,1.799,1.658,2.422c0.697,0.619,1.523,1.082,2.474,1.387c0.949,0.307,1.96,0.455,3.027,0.455
			c1.341,0,2.393-0.148,3.141-0.455c0.745-0.305,1.326-0.568,1.729-0.803l1.031,1.867c-0.737,0.406-1.589,0.77-2.55,1.088
			c-0.968,0.32-2.234,0.477-3.809,0.477c-1.422,0-2.746-0.217-3.978-0.646c-1.232-0.432-2.289-1.064-3.178-1.908
			c-0.894-0.834-1.593-1.861-2.097-3.082c-0.507-1.217-0.763-2.602-0.763-4.146c0-1.602,0.256-3.025,0.763-4.289
			c0.504-1.256,1.203-2.312,2.097-3.176c0.889-0.863,1.95-1.514,3.197-1.963c1.244-0.439,2.597-0.66,4.073-0.66
			c1.672,0,2.982,0.164,3.92,0.514c0.938,0.336,1.526,0.609,1.75,0.816c0.178,0.121,0.331,0.285,0.46,0.473
			c0.124,0.193,0.19,0.426,0.19,0.709c0,0.203-0.072,0.441-0.21,0.719c-0.142,0.279-0.353,0.521-0.628,0.727
			c-0.436-0.377-1.111-0.773-2.038-1.182C292.278,562.349,291.118,562.138,289.725,562.138z"/>
		<path fill="#55362C" d="M320.903,561.802c0-0.381,0.106-0.693,0.325-0.936c0.216-0.24,0.564-0.363,1.045-0.363
			c0.229,0,0.452,0.035,0.665,0.098c0.219,0.061,0.377,0.117,0.48,0.17v11.006c0,1.189-0.207,2.281-0.61,3.271
			c-0.405,0.99-0.99,1.84-1.753,2.551c-0.76,0.711-1.695,1.266-2.798,1.656c-1.103,0.393-2.34,0.592-3.713,0.592
			c-1.37,0-2.603-0.199-3.692-0.592c-1.092-0.391-2.016-0.945-2.774-1.656c-0.767-0.711-1.348-1.561-1.753-2.551
			c-0.408-0.99-0.613-2.082-0.613-3.271v-9.975c0-0.381,0.108-0.693,0.325-0.936c0.216-0.24,0.563-0.363,1.048-0.363
			c0.228,0,0.449,0.035,0.665,0.1c0.216,0.059,0.374,0.115,0.476,0.168v10.244c0,2.105,0.521,3.742,1.562,4.91
			c1.039,1.17,2.628,1.748,4.758,1.748c2.133,0,3.728-0.578,4.778-1.748c1.054-1.168,1.579-2.807,1.579-4.91V561.802z"/>
		<path fill="#55362C" d="M335.258,552.546c0-0.379,0.108-0.689,0.323-0.932c0.216-0.238,0.565-0.359,1.044-0.359
			c0.229,0,0.455,0.029,0.671,0.094c0.216,0.066,0.372,0.121,0.476,0.174v27.791h-2.514V552.546z"/>
		<path fill="#55362C" d="M352.312,562.792v11.037c0,1.422,0.366,2.422,1.108,3.008c0.733,0.588,1.698,0.875,2.89,0.875
			c0.761,0,1.472-0.123,2.134-0.377c0.661-0.256,1.168-0.498,1.525-0.727l1.103,1.641c-0.152,0.125-0.392,0.275-0.702,0.457
			c-0.319,0.172-0.699,0.354-1.146,0.525c-0.44,0.186-0.961,0.328-1.56,0.441c-0.597,0.115-1.249,0.172-1.961,0.172
			c-1.017,0-1.892-0.141-2.625-0.42c-0.736-0.279-1.348-0.662-1.833-1.158c-0.479-0.498-0.842-1.088-1.079-1.771
			c-0.245-0.686-0.366-1.434-0.366-2.242v-17.559c0-0.381,0.108-0.688,0.325-0.93c0.216-0.246,0.563-0.359,1.048-0.359
			c0.228,0,0.449,0.027,0.665,0.092s0.377,0.123,0.475,0.172v4.834h6.701c0.538,0,0.904,0.123,1.105,0.363
			c0.203,0.24,0.303,0.537,0.303,0.895c0,0.205-0.023,0.395-0.075,0.57c-0.049,0.182-0.101,0.328-0.152,0.461H352.312
			L352.312,562.792z"/>
		<path fill="#55362C" d="M384.868,561.802c0-0.381,0.105-0.693,0.318-0.936c0.216-0.24,0.566-0.363,1.051-0.363
			c0.228,0,0.451,0.035,0.664,0.098c0.218,0.061,0.372,0.117,0.477,0.17v11.006c0,1.189-0.202,2.281-0.607,3.271
			c-0.409,0.99-0.993,1.84-1.753,2.551c-0.763,0.711-1.691,1.266-2.801,1.656c-1.104,0.393-2.337,0.592-3.707,0.592
			c-1.373,0-2.604-0.199-3.696-0.592c-1.088-0.391-2.018-0.945-2.776-1.656c-0.762-0.711-1.349-1.561-1.75-2.551
			c-0.409-0.99-0.61-2.082-0.61-3.271v-9.975c0-0.381,0.105-0.693,0.322-0.936c0.216-0.24,0.565-0.363,1.048-0.363
			c0.229,0,0.448,0.035,0.668,0.1c0.213,0.059,0.371,0.115,0.475,0.168v10.244c0,2.105,0.521,3.742,1.562,4.91
			c1.039,1.17,2.626,1.748,4.759,1.748c2.13,0,3.722-0.578,4.775-1.748c1.053-1.168,1.583-2.807,1.583-4.91L384.868,561.802
			L384.868,561.802z"/>
		<path fill="#55362C" d="M411.591,561.873c0,0.26-0.069,0.486-0.207,0.688c-0.139,0.201-0.271,0.369-0.4,0.496
			c-0.435-0.205-0.979-0.396-1.635-0.57c-0.662-0.182-1.439-0.268-2.323-0.268c-1.039,0-1.911,0.129-2.61,0.379
			c-0.695,0.254-1.264,0.629-1.694,1.127c-0.429,0.494-0.734,1.107-0.909,1.846c-0.179,0.732-0.271,1.57-0.271,2.51v11.232h-2.511
			v-12.414c0-2.203,0.659-3.91,1.979-5.119c1.321-1.201,3.25-1.803,5.789-1.803c1.37,0,2.513,0.146,3.428,0.451
			C411.137,560.736,411.591,561.214,411.591,561.873z"/>
		<path fill="#55362C" d="M422.521,571.548c0.279,1.953,1.088,3.465,2.436,4.529c1.348,1.068,3.123,1.596,5.327,1.596
			c1.3,0,2.394-0.182,3.296-0.551c0.898-0.367,1.596-0.689,2.075-0.969l1.104,1.824c-0.198,0.133-0.507,0.297-0.912,0.518
			c-0.406,0.213-0.898,0.426-1.488,0.625c-0.581,0.205-1.24,0.377-1.978,0.518c-0.734,0.141-1.549,0.209-2.438,0.209
			c-1.394,0-2.709-0.209-3.94-0.629c-1.231-0.422-2.309-1.033-3.232-1.848c-0.927-0.812-1.657-1.812-2.193-3.008
			c-0.528-1.195-0.794-2.57-0.794-4.15c0-1.52,0.25-2.908,0.761-4.168c0.51-1.256,1.221-2.334,2.133-3.236
			c0.913-0.898,1.998-1.598,3.256-2.092c1.255-0.498,2.631-0.74,4.13-0.74c1.267,0,2.378,0.139,3.331,0.436
			c0.952,0.291,1.744,0.703,2.377,1.238c0.637,0.531,1.111,1.158,1.431,1.883c0.316,0.723,0.477,1.506,0.477,2.342
			s-0.17,1.604-0.513,2.307c-0.344,0.693-0.931,1.309-1.754,1.828c-0.825,0.52-1.929,0.924-3.312,1.211
			c-1.384,0.299-3.126,0.439-5.232,0.439c-0.813,0-1.558-0.004-2.229-0.02C423.963,571.63,423.254,571.599,422.521,571.548z
			 M422.442,569.568c0.687,0.049,1.354,0.084,2.001,0.092c0.646,0.018,1.327,0.025,2.038,0.025c1.721,0,3.144-0.109,4.263-0.328
			c1.117-0.217,1.998-0.5,2.646-0.855c0.646-0.354,1.097-0.775,1.35-1.258c0.256-0.48,0.383-0.99,0.383-1.521
			c0-0.711-0.148-1.311-0.438-1.791c-0.294-0.479-0.686-0.865-1.184-1.162c-0.494-0.291-1.051-0.494-1.676-0.631
			c-0.619-0.121-1.261-0.189-1.92-0.189c-1.193,0-2.248,0.213-3.16,0.631c-0.912,0.42-1.682,0.984-2.303,1.693
			c-0.625,0.717-1.105,1.527-1.451,2.438C422.65,567.626,422.469,568.574,422.442,569.568z"/>
	</g>
	<g>
		<g>
			<path fill="#A9D42D" d="M154.891,346.309c-10.613,0-28.914-4.709-40.727-33.743c-9.087-22.337-0.353-43.042,12.34-53.657
				l0.93-0.777l1.206-0.164c16.136-2.256,39.319,3.094,51.46,25.474c11.905,21.957,7.337,37.319,2.026,48.251
				c-1.02,2.104-3.546,2.979-5.653,1.96c-2.102-1.021-2.977-3.556-1.955-5.653c4.935-10.167,8.126-22.115-1.855-40.528
				c-9.778-18.019-28.264-22.696-41.638-21.274c-7.609,6.94-17.24,22.981-9.025,43.179c9.812,24.118,23.744,28.727,33.792,28.462
				c2.319-0.156,4.292,1.75,4.37,4.082c0.074,2.337-1.757,4.294-4.091,4.37C155.691,346.3,155.293,346.309,154.891,346.309z"/>
		</g>
		<g>
			<path fill="#A9D42D" d="M203.147,372.761c-0.863,0-1.732-0.262-2.483-0.806c-25.259-18.344-45.926-42.785-59.771-70.682
				c-1.034-2.093-0.182-4.629,1.911-5.668c2.098-1.048,4.634-0.184,5.676,1.909c13.229,26.68,32.998,50.05,57.157,67.591
				c1.891,1.376,2.312,4.021,0.936,5.912C205.747,372.157,204.457,372.761,203.147,372.761z"/>
		</g>
	</g>
	<g>
		<g>
			<path fill="#55362C" d="M276.797,388.201c-2.39-0.44-4.614-0.921-6.787-1.417l-0.021,0.025c-0.247-0.057-0.464-0.12-0.705-0.178
				c-0.384-0.086-0.812-0.158-1.184-0.25c0.012-0.014,0.021-0.025,0.032-0.038c-12.102-2.943-20.808-6.891-25.721-10.06
				c-1.058-0.633-2.444-1.439-3.061-1.938c0.161-0.216,0.328-0.377,0.498-0.535c7.677-8.827,14.52-17.176,20.857-25.062
				c-14.075-2.893-28.06-0.268-37.843,7.334c-6.419,4.988-9.956,11.448-9.956,18.174c0,7.34,4.229,14.715,12.547,21.211
				c-0.013,0.015-0.029,0.026-0.046,0.043c5.892,4.787,13.051,8.566,23.737,12.145c0.013-0.009,0.026-0.021,0.035-0.029
				c14.029,4.818,32.108,8.094,54.001,9.001C294.601,405.604,286.602,395.564,276.797,388.201z"/>
		</g>
		<path fill="#55362C" d="M222.361,398.278c-28.375,26.481-64.229,46.786-102.956,57.875c-6.734,1.924-10.636,8.953-8.707,15.689
			c1.596,5.574,6.673,9.203,12.19,9.203c1.157,0,2.334-0.162,3.5-0.494c45.364-12.979,87.271-37.496,119.454-69.586
			C236.016,407.377,228.221,403.039,222.361,398.278z"/>
		<g>
			<path fill="#55362C" d="M311.272,333.31c0.149-0.179,0.309-0.368,0.455-0.544c6.289-7.309,12.377-13.738,18.879-19.365
				c18.358-15.877,54.235-28.571,78.42-22.145c10.383,2.76,17.028,8.655,20.324,18.027c1.897,5.402-0.563,20.253-11.979,36.366
				c-25.162,35.514-66.738,43.85-91.233,45.505c1.604,2.031,3.255,4.042,4.836,6.07c4.637,5.968,9.288,11.784,14.202,17.354
				c54.562-8.645,82.581-39.688,92.906-54.261c14.666-20.693,20.636-44.031,15.216-59.455
				c-6.114-17.394-19.171-29.204-37.751-34.141c-33.407-8.875-77.87,7-101.548,27.48c-8.138,7.043-15.604,15.072-23.125,23.931
				c-5.853,6.892-11.732,14.271-17.993,22.155c-2.444,3.083-4.968,6.258-7.587,9.531c-0.003,0-0.013-0.003-0.018-0.003
				c-5.903,7.352-12.281,15.167-19.362,23.406c0.017,0.003,0.028,0.007,0.043,0.007c-0.142,0.164-0.266,0.291-0.397,0.442
				c4.565,2.657,13.1,6.229,25.606,9.056c7.984-9.539,15.079-18.454,21.597-26.66C299.437,347.659,305.44,340.117,311.272,333.31z"
				/>
			<path fill="#55362C" d="M424.072,388.362c-7.01,0-12.69,5.679-12.69,12.69c0,7.01,5.682,12.688,12.69,12.688
				c21.594,0,37.728,10.981,37.728,20.803c0,9.818-16.134,20.799-37.386,20.801l-7.754-0.203
				c-39.475-3.582-59.685-20.002-76.552-39.76c0.028-0.003,0.056-0.008,0.083-0.011c-4.3-5.035-8.428-10.233-12.559-15.546
				c-2.901-3.73-5.85-7.461-8.871-11.151c-7.642-9.352-15.903-18.335-26.13-25.641c-4.968,6.24-10.285,12.86-16.079,19.838
				c1.819,1.241,3.592,2.547,5.293,3.946c0.049,0.009,0.095,0.012,0.15,0.02c0.413,0.343,0.792,0.751,1.205,1.104
				c0.643,0.55,1.318,1.039,1.94,1.611c-0.078-0.014-0.144-0.025-0.219-0.037c8.083,7.312,15.151,16.215,22.673,25.895
				c0.679,0.875,1.376,1.765,2.062,2.647c21.277,27.292,46.251,57.201,105.149,62.402l9.263,0.268
				c35.387,0,63.109-20.281,63.109-46.182C487.182,408.644,459.458,388.362,424.072,388.362z"/>
		</g>
	</g>
	<g>
		<path fill="#55362C" d="M440.409,545.277H156.978c-0.293,0-0.53-0.236-0.53-0.529c0-0.295,0.236-0.527,0.53-0.527h283.432
			c0.293,0,0.529,0.232,0.529,0.527C440.939,545.041,440.702,545.277,440.409,545.277z"/>
	</g>
</g>
</svg>
